<svg width="16" height="17" viewBox="0 0 16 17" fill="none" xmlns="http://www.w3.org/2000/svg">
<g id="bx:building-house">
<path id="Vector" d="M11.0526 3.5H6.31573C5.79325 3.5 5.36835 3.9485 5.36835 4.5V7.293L3.13869 9.6465C3.07246 9.71643 3.02737 9.80551 3.0091 9.90248C2.99083 9.99946 3.00021 10.1 3.03605 10.1913C3.0719 10.2827 3.13259 10.3608 3.21047 10.4157C3.28835 10.4706 3.37992 10.5 3.47359 10.5V13C3.47359 13.1326 3.52349 13.2598 3.61233 13.3536C3.70116 13.4473 3.82165 13.5 3.94728 13.5H11.5263C11.6519 13.5 11.7724 13.4473 11.8613 13.3536C11.9501 13.2598 12 13.1326 12 13V4.5C12 3.9485 11.5751 3.5 11.0526 3.5ZM7.2631 12.5H4.42097V9.707L5.84204 8.207L7.2631 9.707V12.5ZM11.0526 12.5H8.21048V10.5C8.30426 10.5002 8.39598 10.471 8.47401 10.4161C8.55203 10.3612 8.61285 10.2831 8.64873 10.1916C8.68461 10.1002 8.69395 9.99955 8.67555 9.90249C8.65715 9.80543 8.61184 9.71633 8.54538 9.6465L6.31573 7.293V4.5H11.0526V12.5Z" fill="#999999"/>
<path id="Vector_2" d="M7 5.5H8V6.40909H7V5.5ZM9 5.5H10V6.40909H9V5.5ZM9 7.33227H10V8.22727H9V7.33227ZM9 9.13636H10V10.0455H9V9.13636ZM5 9.59091H6V10.5H5V9.59091Z" fill="#999999"/>
</g>
</svg>
