<svg width="16" height="17" viewBox="0 0 16 17" fill="none" xmlns="http://www.w3.org/2000/svg">
<g id="fluent:building-townhouse-20-regular">
<path id="Vector" d="M5.21786 3.66838C5.34673 3.55965 5.50993 3.5 5.67857 3.5C5.84721 3.5 6.01041 3.55965 6.13929 3.66838L7.97714 5.22071L8 5.2407L8.02286 5.22071L9.86071 3.66838C9.98959 3.55965 10.1528 3.5 10.3214 3.5C10.4901 3.5 10.6533 3.55965 10.7821 3.66838L12.62 5.22071C12.7391 5.32126 12.8348 5.44657 12.9004 5.5879C12.966 5.72924 13 5.88318 13 6.039V12.4289C13 12.713 12.8871 12.9854 12.6862 13.1863C12.4853 13.3872 12.2127 13.5 11.9286 13.5H4.07143C3.78727 13.5 3.51475 13.3872 3.31381 13.1863C3.11288 12.9854 3 12.713 3 12.4289V6.03828C3 5.7241 3.13929 5.42421 3.38 5.22071L5.21786 3.66838ZM8.35714 10.6403H9.78571C9.88043 10.6403 9.97128 10.6779 10.0383 10.7448C10.1052 10.8118 10.1429 10.9026 10.1429 10.9973V12.786H11.9286C12.0233 12.786 12.1141 12.7483 12.1811 12.6814C12.2481 12.6144 12.2857 12.5236 12.2857 12.4289V6.03828C12.2856 5.98648 12.2743 5.93532 12.2525 5.88834C12.2306 5.84136 12.1988 5.7997 12.1593 5.76623L10.3214 4.21391L8.48357 5.76623C8.44393 5.79977 8.41207 5.84155 8.39024 5.88866C8.3684 5.93577 8.35711 5.98708 8.35714 6.039V10.6403ZM7.64286 10.6403V6.039C7.64289 5.98708 7.6316 5.93577 7.60976 5.88866C7.58793 5.84155 7.55608 5.79977 7.51643 5.76623L5.67857 4.21391L3.84071 5.76623C3.80107 5.79977 3.76922 5.84155 3.74738 5.88866C3.72555 5.93577 3.71425 5.98708 3.71429 6.039V12.4289C3.71429 12.5236 3.75191 12.6144 3.81889 12.6814C3.88587 12.7483 3.97671 12.786 4.07143 12.786H5.85714V10.9973C5.85714 10.9026 5.89477 10.8118 5.96175 10.7448C6.02872 10.6779 6.11957 10.6403 6.21429 10.6403H7.64286ZM6.57143 12.786H7.64286V11.3543H6.57143V12.786ZM8.35714 11.3543V12.786H9.42857V11.3543H8.35714ZM5.67857 7.42709C5.82065 7.42709 5.95691 7.37067 6.05738 7.27024C6.15784 7.16981 6.21429 7.03359 6.21429 6.89156C6.21429 6.74953 6.15784 6.61331 6.05738 6.51288C5.95691 6.41245 5.82065 6.35603 5.67857 6.35603C5.53649 6.35603 5.40023 6.41245 5.29976 6.51288C5.1993 6.61331 5.14286 6.74953 5.14286 6.89156C5.14286 7.03359 5.1993 7.16981 5.29976 7.27024C5.40023 7.37067 5.53649 7.42709 5.67857 7.42709ZM6.21429 9.03368C6.21429 9.17571 6.15784 9.31193 6.05738 9.41236C5.95691 9.51279 5.82065 9.56921 5.67857 9.56921C5.53649 9.56921 5.40023 9.51279 5.29976 9.41236C5.1993 9.31193 5.14286 9.17571 5.14286 9.03368C5.14286 8.89165 5.1993 8.75543 5.29976 8.655C5.40023 8.55457 5.53649 8.49815 5.67857 8.49815C5.82065 8.49815 5.95691 8.55457 6.05738 8.655C6.15784 8.75543 6.21429 8.89165 6.21429 9.03368ZM10.3214 7.42709C10.4635 7.42709 10.5998 7.37067 10.7002 7.27024C10.8007 7.16981 10.8571 7.03359 10.8571 6.89156C10.8571 6.74953 10.8007 6.61331 10.7002 6.51288C10.5998 6.41245 10.4635 6.35603 10.3214 6.35603C10.1793 6.35603 10.0431 6.41245 9.94262 6.51288C9.84216 6.61331 9.78571 6.74953 9.78571 6.89156C9.78571 7.03359 9.84216 7.16981 9.94262 7.27024C10.0431 7.37067 10.1793 7.42709 10.3214 7.42709ZM10.8571 9.03368C10.8571 9.17571 10.8007 9.31193 10.7002 9.41236C10.5998 9.51279 10.4635 9.56921 10.3214 9.56921C10.1793 9.56921 10.0431 9.51279 9.94262 9.41236C9.84216 9.31193 9.78571 9.17571 9.78571 9.03368C9.78571 8.89165 9.84216 8.75543 9.94262 8.655C10.0431 8.55457 10.1793 8.49815 10.3214 8.49815C10.4635 8.49815 10.5998 8.55457 10.7002 8.655C10.8007 8.75543 10.8571 8.89165 10.8571 9.03368Z" fill="#999999"/>
</g>
</svg>
