<svg width="16" height="17" viewBox="0 0 16 17" fill="none" xmlns="http://www.w3.org/2000/svg">
<g id="ic:round-landscape">
<path id="Vector" d="M8.60005 5.71425L7.12493 7.79458L8.25002 9.38262C8.41503 9.61553 8.37003 9.94902 8.15001 10.1237C8.09763 10.1658 8.03787 10.1965 7.9742 10.214C7.91053 10.2315 7.84421 10.2354 7.77909 10.2256C7.71398 10.2157 7.65135 10.1923 7.59485 10.1566C7.53835 10.121 7.4891 10.0738 7.44996 10.0178C6.92491 9.27675 6.29486 8.39274 5.89983 7.82634C5.69982 7.54579 5.29978 7.54579 5.09977 7.82634L3.09961 10.6478C2.85459 11.0024 3.08961 11.5 3.49964 11.5H12.5004C12.9104 11.5 13.1454 11.0024 12.9004 10.653L9.40011 5.71425C9.35398 5.64783 9.29373 5.59383 9.22424 5.55661C9.15475 5.51939 9.07796 5.5 9.00008 5.5C8.9222 5.5 8.84541 5.51939 8.77592 5.55661C8.70643 5.59383 8.64618 5.64783 8.60005 5.71425Z" fill="#999999"/>
</g>
</svg>
