<svg width="16" height="17" viewBox="0 0 16 17" fill="none" xmlns="http://www.w3.org/2000/svg">
<g id="material-symbols-light:apartment">
<path id="Vector" d="M4 13V6.11765H5.88235V4H10.1176V8.23529H12V13H8.70588V10.8824H7.29412V13H4ZM4.47059 12.4706H5.88235V10.8824H4.47059V12.4706ZM4.47059 10.3529H5.88235V8.76471H4.47059V10.3529ZM4.47059 8.23529H5.88235V6.64706H4.47059V8.23529ZM6.35294 10.3529H7.76471V8.76471H6.35294V10.3529ZM6.35294 8.23529H7.76471V6.64706H6.35294V8.23529ZM6.35294 6.11765H7.76471V4.52941H6.35294V6.11765ZM8.23529 10.3529H9.64706V8.76471H8.23529V10.3529ZM8.23529 8.23529H9.64706V6.64706H8.23529V8.23529ZM8.23529 6.11765H9.64706V4.52941H8.23529V6.11765ZM10.1176 12.4706H11.5294V10.8824H10.1176V12.4706ZM10.1176 10.3529H11.5294V8.76471H10.1176V10.3529Z" fill="#999999"/>
</g>
</svg>
