<svg width="16" height="17" viewBox="0 0 16 17" fill="none" xmlns="http://www.w3.org/2000/svg">
<g id="ph:house">
<path id="Vector" d="M11.7846 7.08919L8.45125 3.6923C8.44962 3.69077 8.44809 3.68911 8.44667 3.68735C8.32394 3.5668 8.16401 3.5 7.99813 3.5C7.83224 3.5 7.67231 3.5668 7.54958 3.68735L7.545 3.6923L4.21542 7.08919C4.1475 7.15665 4.09328 7.23859 4.0562 7.32985C4.01912 7.4211 3.99999 7.51968 4 7.61934V11.7799C4 11.9709 4.07024 12.1541 4.19526 12.2891C4.32029 12.4241 4.48986 12.5 4.66667 12.5H6.66667C6.84348 12.5 7.01305 12.4241 7.13807 12.2891C7.2631 12.1541 7.33333 11.9709 7.33333 11.7799V9.61975H8.66667V11.7799C8.66667 11.9709 8.7369 12.1541 8.86193 12.2891C8.98695 12.4241 9.15652 12.5 9.33333 12.5H11.3333C11.5101 12.5 11.6797 12.4241 11.8047 12.2891C11.9298 12.1541 12 11.9709 12 11.7799V7.61934C12 7.51968 11.9809 7.4211 11.9438 7.32985C11.9067 7.23859 11.8525 7.15665 11.7846 7.08919ZM11.3333 11.7799H9.33333V9.61975C9.33333 9.42878 9.2631 9.24563 9.13807 9.1106C9.01305 8.97556 8.84348 8.89969 8.66667 8.89969H7.33333C7.15652 8.89969 6.98695 8.97556 6.86193 9.1106C6.7369 9.24563 6.66667 9.42878 6.66667 9.61975V11.7799H4.66667V7.61934L4.67125 7.61483L8 4.2193L11.3292 7.61393L11.3337 7.61843L11.3333 11.7799Z" fill="#999999"/>
</g>
</svg>
